<svg xmlns="http://www.w3.org/2000/svg" version="1.1" xmlns:xlink="http://www.w3.org/1999/xlink" width="364" height="258"><svg width="364" height="258" viewBox="0 0 364 258" fill="none" xmlns="http://www.w3.org/2000/svg">
<path fill-rule="evenodd" clip-rule="evenodd" d="M145.006 217.454C173.355 212.014 189.536 211.941 218.94 217.454C227.809 232.917 223.776 240.239 202.567 257.743C185.991 253.127 176.997 253.193 161.475 257.743C138.751 239.948 136.394 231.285 145.006 217.454ZM147.398 224.826C149.383 236.393 151.523 241.594 157.887 247.688C165.745 248.552 168.504 235.601 150.884 229.814L147.398 224.826ZM216.407 224.922C214.789 234.967 213.362 240.352 206.11 247.72C195.589 248.071 198.147 234.002 213.017 229.654L216.407 224.922Z" fill="#000424"></path>
<path d="M157.845 130.703L182.068 101.97L206.213 130.703L194.809 125.931L208.887 163.315L200.393 157.023V193.096L197.09 188.377L188.675 202.953V198.497L182.028 207.62L175.462 198.497V202.953L167.047 188.377L163.665 193.096V157.023L155.171 163.315L169.485 125.931L157.845 130.703Z" fill="#000424"></path>
<path d="M221.207 143.602C225.748 131.78 246.899 111.507 276.563 115.084L278.895 113.047C279.698 112.397 280.673 113.602 280.008 114.161L276.983 116.655C265.59 144.028 253.113 149.43 222.025 144.632L219.841 146.412C219.227 146.957 218.357 145.941 219.036 145.433L221.207 143.602Z" fill="#000424"></path>
<path d="M142.691 143.602C138.15 131.78 116.998 111.507 87.3352 115.084L85.0027 113.047C84.1992 112.397 83.2246 113.602 83.8896 114.161L86.9143 116.655C98.3074 144.028 110.784 149.43 141.872 144.632L144.056 146.412C144.671 146.957 145.54 145.94 144.862 145.433L142.691 143.602Z" fill="#000424"></path>
<path fill-rule="evenodd" clip-rule="evenodd" d="M268.246 70.1235C291.504 46.866 334.383 64.8933 351.854 105.659L355.86 116.712L351.112 111.965L350.853 114.747L346.81 110.703C295.202 132.372 273.971 129.644 260.271 78.0985L268.246 70.1235ZM264.76 82.5868C299.111 77.4734 315.643 82.9307 341.097 104.991C295.708 128.296 278.918 123.335 264.76 82.5868Z" fill="#000424"></path>
<path fill-rule="evenodd" clip-rule="evenodd" d="M95.5735 70.1235C72.316 46.866 29.4364 64.8933 11.9655 105.659L7.95943 116.712L12.7074 111.965L12.967 114.747L17.0102 110.703C68.6178 132.372 89.8484 129.644 103.548 78.0985L95.5735 70.1235ZM99.0602 82.5868C64.7084 77.4734 48.1771 82.9307 22.7225 104.991C68.1115 128.296 84.9018 123.335 99.0602 82.5868Z" fill="#000424"></path>
<path d="M336.924 27.2582C314.934 52.4147 257.34 58.6687 257.34 58.6687L260.623 79.8182C260.623 79.8182 334.286 68.7803 348.749 33.3325C355.304 17.2669 353.503 -1.38305e-05 353.503 -1.38305e-05C353.503 -1.38305e-05 345.124 17.8775 336.924 27.2582Z" fill="#000424"></path>
<path d="M26.896 27.2583C48.8858 52.4149 106.48 58.6689 106.48 58.6689L103.197 79.8183C103.197 79.8183 29.5343 68.7805 15.0705 33.3326C8.51533 17.2671 10.3172 0.000138757 10.3172 0.000138757C10.3172 0.000138757 18.6961 17.8777 26.896 27.2583Z" fill="#000424"></path>
<path d="M141.237 39.1186C139.2 44.9939 122.972 84.547 122.972 84.547C134.998 65.4077 140.962 59.8025 150.795 55.1132C148.868 57.5433 149.227 60.7888 150.795 67.7953C151.261 57.9956 157.718 54.1571 171.52 47.9204C178.033 60.3481 178.546 66.425 179.452 77.1533L179.469 77.3541C182.01 71.8134 183.201 68.7489 183.431 64.1065C183.434 64.0111 183.439 63.9157 183.444 63.8203C183.44 63.9164 183.435 64.0117 183.431 64.1065C183.245 68.8765 184.506 73.7125 188.27 84.547C186.065 64.0867 189.314 59.7899 196.976 55.1132C200.285 55.9129 202.057 58.0662 204.926 67.7953C205.763 60.9046 206.179 57.1643 204.926 55.1132C212.85 53.7945 219.112 62.6747 224.893 77.3541C222.392 65.959 220.95 59.914 217.701 55.1132C228.341 60.2035 233.134 67.6849 240.792 84.547C240.792 84.547 226.988 46.6726 224.893 39.1186C222.799 31.5647 182.251 31.9844 181.873 39.1186C182.251 31.9844 143.273 33.2434 141.237 39.1186Z" fill="#000424"></path>
<path fill-rule="evenodd" clip-rule="evenodd" d="M41.847 152.811L41.2705 119.6L39.2111 118.876L39.7884 145.233C30.4012 137.985 18.9966 144.204 18.9966 152.811C18.9966 164.013 41.847 162.736 41.847 152.811ZM56.0925 118.876C56.0398 118.554 55.9337 118.214 55.7803 117.858C51.5846 114.822 49.9401 114.354 48.4822 116.059C49.2565 116.846 49.8243 117.603 50.1226 118.135C50.1963 118.266 50.3037 118.436 50.4342 118.642C51.9806 121.087 56.7842 128.683 47.5699 138.85C58.4354 132.65 57.0431 124.47 56.2107 119.579C56.1694 119.336 56.1295 119.102 56.0925 118.876Z" fill="#FFFB00"></path>
<path fill-rule="evenodd" clip-rule="evenodd" d="M322.011 152.811L322.587 119.6L324.647 118.876L324.069 145.233C333.457 137.985 344.861 144.204 344.861 152.811C344.861 164.013 322.011 162.736 322.011 152.811ZM307.765 118.876C307.818 118.554 307.924 118.214 308.078 117.858C312.273 114.822 313.918 114.354 315.376 116.059C314.601 116.846 314.034 117.603 313.735 118.135C313.662 118.266 313.554 118.436 313.424 118.642C311.877 121.087 307.074 128.683 316.288 138.85C305.422 132.65 306.815 124.47 307.647 119.579C307.688 119.336 307.728 119.102 307.765 118.876Z" fill="#FFFB00"></path>
</svg><style>@media (prefers-color-scheme: light) { :root { filter: none; } }
@media (prefers-color-scheme: dark) { :root { filter: none; } }
</style></svg>