<svg width="910" height="260" viewBox="0 0 910 260" fill="none" xmlns="http://www.w3.org/2000/svg">
<rect x="5" y="5" width="900" height="250" rx="35" stroke="black" stroke-width="10"/>
<path d="M230.15 175V100.75H260.9C266.5 100.75 270.75 101.9 273.65 104.2C276.55 106.5 278 109.55 278 113.35V121.6C278 126.2 276.5 129.7 273.5 132.1C272.3 133 270.9 133.7 269.3 134.2C267.7 134.7 266.15 135 264.65 135.1V135.4C266.15 135.4 267.7 135.55 269.3 135.85C270.9 136.15 272.4 136.8 273.8 137.8C275.4 138.9 276.7 140.4 277.7 142.3C278.7 144.2 279.2 146.6 279.2 149.5V159.4C279.2 164.8 277.6 168.75 274.4 171.25C271.2 173.75 266.15 175 259.25 175H230.15ZM247.25 166.15H255.2C256.5 166.15 257.65 166 258.65 165.7C259.65 165.3 260.45 164.55 261.05 163.45C261.65 162.35 261.95 160.65 261.95 158.35V149.95C261.95 147.25 261.35 145.35 260.15 144.25C258.95 143.15 257.1 142.6 254.6 142.6H247.25V166.15ZM247.25 131.95H254.3C256.3 131.95 258 131.45 259.4 130.45C260.8 129.35 261.5 127.05 261.5 123.55V116.5C261.5 114.2 260.95 112.55 259.85 111.55C258.85 110.45 257.4 109.9 255.5 109.9H247.25V131.95ZM289.916 175V100.75H307.016V175H289.916ZM319.213 175V100.75H336.013V163.3H355.813V175H319.213ZM363.158 175V100.75H379.958V163.3H399.758V175H363.158ZM407.103 175V100.75H447.003V112.6H424.953V130.15H443.703V143.5H424.953V163.3H447.003V175H407.103ZM464.875 175V112.6H451.375V100.75H495.625V112.6H481.975V175H464.875ZM503.197 175V100.75H543.097V112.6H521.047V130.15H539.797V143.5H521.047V163.3H543.097V175H503.197ZM552.269 175V100.75H583.919C589.719 100.75 594.069 101.9 596.969 104.2C599.969 106.5 601.469 109.55 601.469 113.35V124.75C601.469 128.55 600.219 131.85 597.719 134.65C595.319 137.45 591.569 139.1 586.469 139.6V139.75C589.769 140.25 592.119 141.2 593.519 142.6C594.919 143.9 596.169 146.15 597.269 149.35L605.369 175H586.469L580.169 150.55C579.869 149.25 579.469 148.15 578.969 147.25C578.569 146.25 578.019 145.5 577.319 145C576.719 144.4 575.969 144.1 575.069 144.1H569.969V175H552.269ZM569.969 132.25H577.019C579.219 132.25 581.019 131.8 582.419 130.9C583.919 129.9 584.669 127.95 584.669 125.05V116.5C584.669 114.1 584.119 112.4 583.019 111.4C581.919 110.4 580.369 109.9 578.369 109.9H569.969V132.25ZM613.939 175V100.75H631.039V175H613.939ZM643.236 175V100.75H683.136V112.6H661.086V130.15H679.836V143.5H661.086V163.3H683.136V175H643.236Z" fill="black"/>
</svg>
