<svg width="910" height="260" viewBox="0 0 910 260" fill="none" xmlns="http://www.w3.org/2000/svg">
<rect x="5" y="5" width="900" height="250" rx="35" stroke="black" stroke-width="10"/>
<path d="M84.15 175V100.75H115.05C120.75 100.75 125.1 101.9 128.1 104.2C131.1 106.5 132.6 109.55 132.6 113.35V125.95C132.6 129.35 132.1 132.6 131.1 135.7C130.2 138.7 128.45 141.2 125.85 143.2C123.35 145.1 119.65 146.05 114.75 146.05H102V175H84.15ZM102 136.6H108.45C110.75 136.6 112.5 135.7 113.7 133.9C114.9 132.1 115.5 128.85 115.5 124.15V121C115.5 117.3 115.05 114.55 114.15 112.75C113.25 110.85 111.8 109.9 109.8 109.9H102V136.6ZM141.718 175V100.75H173.368C179.168 100.75 183.518 101.9 186.418 104.2C189.418 106.5 190.918 109.55 190.918 113.35V124.75C190.918 128.55 189.668 131.85 187.168 134.65C184.768 137.45 181.018 139.1 175.918 139.6V139.75C179.218 140.25 181.568 141.2 182.968 142.6C184.368 143.9 185.618 146.15 186.718 149.35L194.818 175H175.918L169.618 150.55C169.318 149.25 168.918 148.15 168.418 147.25C168.018 146.25 167.468 145.5 166.768 145C166.168 144.4 165.418 144.1 164.518 144.1H159.418V175H141.718ZM159.418 132.25H166.468C168.668 132.25 170.468 131.8 171.868 130.9C173.368 129.9 174.118 127.95 174.118 125.05V116.5C174.118 114.1 173.568 112.4 172.468 111.4C171.368 110.4 169.818 109.9 167.818 109.9H159.418V132.25ZM226.488 176.5C221.088 176.5 216.588 175.85 212.988 174.55C209.388 173.25 206.688 171 204.888 167.8C203.188 164.6 202.338 160.15 202.338 154.45V116.5C202.338 110.3 204.538 105.95 208.938 103.45C213.338 100.85 219.188 99.55 226.488 99.55C233.888 99.55 239.838 100.8 244.338 103.3C248.838 105.8 251.088 110.2 251.088 116.5V154.3C251.088 160 250.188 164.5 248.388 167.8C246.588 171 243.888 173.25 240.288 174.55C236.688 175.85 232.088 176.5 226.488 176.5ZM226.488 166.45C228.888 166.45 230.738 166 232.038 165.1C233.338 164.2 233.988 162.85 233.988 161.05V115.6C233.988 113.7 233.338 112.35 232.038 111.55C230.738 110.65 228.888 110.2 226.488 110.2C224.188 110.2 222.388 110.65 221.088 111.55C219.788 112.35 219.138 113.7 219.138 115.6V161.05C219.138 162.85 219.788 164.2 221.088 165.1C222.388 166 224.188 166.45 226.488 166.45ZM280.425 176.35C277.125 176.35 273.975 175.85 270.975 174.85C268.075 173.85 265.725 171.95 263.925 169.15C262.125 166.25 261.225 162.1 261.225 156.7V116.65C261.225 110.45 263.375 106.1 267.675 103.6C272.075 101.1 278.025 99.85 285.525 99.85C292.825 99.85 298.725 101.1 303.225 103.6C307.725 106.1 309.975 110.45 309.975 116.65V127.6H293.325V115.6C293.325 113.6 292.725 112.2 291.525 111.4C290.325 110.6 288.425 110.2 285.825 110.2C283.325 110.2 281.425 110.6 280.125 111.4C278.925 112.2 278.325 113.6 278.325 115.6V161.05C278.325 163.15 278.975 164.6 280.275 165.4C281.675 166.1 283.525 166.45 285.825 166.45C287.925 166.45 289.675 166.05 291.075 165.25C292.575 164.35 293.325 162.95 293.325 161.05V146.5H286.275V136.9H309.975V175H297.075L296.175 169.75C295.975 169.85 295.775 170 295.575 170.2C295.475 170.3 295.325 170.4 295.125 170.5C294.125 171.8 292.425 173.1 290.025 174.4C287.725 175.7 284.525 176.35 280.425 176.35ZM320.869 175V100.75H352.519C358.319 100.75 362.669 101.9 365.569 104.2C368.569 106.5 370.069 109.55 370.069 113.35V124.75C370.069 128.55 368.819 131.85 366.319 134.65C363.919 137.45 360.169 139.1 355.069 139.6V139.75C358.369 140.25 360.719 141.2 362.119 142.6C363.519 143.9 364.769 146.15 365.869 149.35L373.969 175H355.069L348.769 150.55C348.469 149.25 348.069 148.15 347.569 147.25C347.169 146.25 346.619 145.5 345.919 145C345.319 144.4 344.569 144.1 343.669 144.1H338.569V175H320.869ZM338.569 132.25H345.619C347.819 132.25 349.619 131.8 351.019 130.9C352.519 129.9 353.269 127.95 353.269 125.05V116.5C353.269 114.1 352.719 112.4 351.619 111.4C350.519 110.4 348.969 109.9 346.969 109.9H338.569V132.25ZM377.589 175L393.039 100.75H417.639L432.789 175H413.739L411.039 162.7H398.589L396.039 175H377.589ZM398.739 154.3H411.039L404.889 114.55L398.739 154.3ZM440.254 175V100.75H461.554L473.404 143.95L485.404 100.75H506.554V175H491.554V121.15L479.254 175H467.554L455.254 121.15V175H440.254ZM518.916 175V100.75H540.216L552.066 143.95L564.066 100.75H585.216V175H570.216V121.15L557.916 175H546.216L533.916 121.15V175H518.916ZM597.578 175V100.75H637.478V112.6H615.428V130.15H634.178V143.5H615.428V163.3H637.478V175H597.578ZM671.552 175V100.75H702.452C708.152 100.75 712.502 101.9 715.502 104.2C718.502 106.5 720.002 109.55 720.002 113.35V125.95C720.002 129.35 719.502 132.6 718.502 135.7C717.602 138.7 715.852 141.2 713.252 143.2C710.752 145.1 707.052 146.05 702.152 146.05H689.402V175H671.552ZM689.402 136.6H695.852C698.152 136.6 699.902 135.7 701.102 133.9C702.302 132.1 702.902 128.85 702.902 124.15V121C702.902 117.3 702.452 114.55 701.552 112.75C700.652 110.85 699.202 109.9 697.202 109.9H689.402V136.6ZM729.121 175V100.75H759.571C763.371 100.75 766.621 101.25 769.321 102.25C772.021 103.15 774.071 104.6 775.471 106.6C776.971 108.6 777.721 111.1 777.721 114.1V159.1C777.721 164.6 776.071 168.65 772.771 171.25C769.471 173.75 764.271 175 757.171 175H729.121ZM746.821 166.15H754.321C755.521 166.15 756.571 166.05 757.471 165.85C758.471 165.55 759.221 165 759.721 164.2C760.321 163.4 760.621 162.25 760.621 160.75V115.9C760.621 113.9 760.071 112.45 758.971 111.55C757.971 110.65 756.421 110.2 754.321 110.2H746.821V166.15ZM789.179 175V100.75H829.079V112.6H807.029V130.15H825.779V143.5H807.029V175H789.179Z" fill="black"/>
</svg>
