<svg width="258" height="258" viewBox="0 0 258 258" fill="none" xmlns="http://www.w3.org/2000/svg">
<circle cx="129" cy="129" r="126.5" transform="rotate(-180 129 129)" fill="white" stroke="black" stroke-width="5"/>
<path d="M212 134C214.761 134 217 131.761 217 129C217 126.239 214.761 124 212 124L212 129L212 134ZM43.4645 125.464C41.5118 127.417 41.5118 130.583 43.4645 132.536L75.2843 164.355C77.2369 166.308 80.4027 166.308 82.3553 164.355C84.308 162.403 84.308 159.237 82.3553 157.284L54.0711 129L82.3553 100.716C84.308 98.7631 84.308 95.5973 82.3553 93.6447C80.4027 91.6921 77.2369 91.6921 75.2843 93.6447L43.4645 125.464ZM212 129L212 124L47 124L47 129L47 134L212 134L212 129Z" fill="black"/>
</svg>
