<svg width="258" height="258" viewBox="0 0 258 258" fill="none" xmlns="http://www.w3.org/2000/svg">
<circle cx="129" cy="129" r="126.5" fill="white" stroke="black" stroke-width="5"/>
<path d="M46 124C43.2386 124 41 126.239 41 129C41 131.761 43.2386 134 46 134V129V124ZM214.536 132.536C216.488 130.583 216.488 127.417 214.536 125.464L182.716 93.6447C180.763 91.692 177.597 91.692 175.645 93.6447C173.692 95.5973 173.692 98.7631 175.645 100.716L203.929 129L175.645 157.284C173.692 159.237 173.692 162.403 175.645 164.355C177.597 166.308 180.763 166.308 182.716 164.355L214.536 132.536ZM46 129V134H211V129V124H46V129Z" fill="black"/>
</svg>
