<svg width="892" height="632" viewBox="0 0 892 632" fill="none" xmlns="http://www.w3.org/2000/svg">
<path fill-rule="evenodd" clip-rule="evenodd" d="M355.521 533.146C425.026 519.808 464.697 519.627 536.787 533.146C558.532 571.056 548.646 589.009 496.645 631.923C456.005 620.607 433.955 620.768 395.898 631.923C340.184 588.294 334.405 567.055 355.521 533.146ZM361.385 551.218C366.251 579.58 371.498 592.331 387.101 607.27C406.366 609.39 413.131 577.637 369.931 563.448L361.385 551.218ZM530.578 551.453C526.61 576.082 523.111 589.285 505.332 607.349C479.538 608.211 485.81 573.717 522.267 563.056L530.578 551.453Z" fill="#041DD3"/>
<path d="M386.997 320.451L446.387 250.006L505.585 320.451L477.625 308.753L512.141 400.409L491.316 384.983V473.425L483.217 461.856L462.585 497.593V486.666L446.289 509.033L430.19 486.666V497.593L409.558 461.856L401.266 473.425V384.983L380.441 400.409L415.535 308.753L386.997 320.451Z" fill="#041DD3"/>
<path d="M542.345 352.078C553.479 323.092 605.338 273.388 678.065 282.158L683.784 277.164C685.753 275.571 688.143 278.526 686.513 279.895L679.097 286.009C651.164 353.123 620.573 366.367 544.353 354.602L538.998 358.967C537.492 360.302 535.36 357.811 537.024 356.566L542.345 352.078Z" fill="#041DD3"/>
<path d="M349.845 352.078C338.711 323.092 286.852 273.387 214.125 282.158L208.406 277.164C206.436 275.571 204.047 278.525 205.677 279.894L213.093 286.009C241.026 353.122 271.617 366.367 347.837 354.602L353.192 358.966C354.698 360.302 356.83 357.811 355.166 356.566L349.845 352.078Z" fill="#041DD3"/>
<path fill-rule="evenodd" clip-rule="evenodd" d="M657.676 171.926C714.697 114.904 819.828 159.103 862.662 259.049L872.484 286.151L860.843 274.51L860.207 281.331L850.294 271.418C723.764 324.545 671.712 317.855 638.123 191.478L657.676 171.926ZM649.127 202.483C733.349 189.946 773.88 203.326 836.289 257.412C725.006 314.551 683.84 302.387 649.127 202.483Z" fill="#041DD3"/>
<path fill-rule="evenodd" clip-rule="evenodd" d="M234.323 171.926C177.301 114.904 72.1706 159.103 29.3362 259.049L19.5144 286.151L31.1551 274.51L31.7917 281.331L41.7046 271.418C168.234 324.545 220.286 317.855 253.876 191.478L234.323 171.926ZM242.872 202.483C158.649 189.946 118.118 203.326 55.7098 257.412C166.993 314.551 208.158 302.387 242.872 202.483Z" fill="#041DD3"/>
<path d="M826.056 66.8304C772.143 128.508 630.935 143.841 630.935 143.841L638.984 195.695C638.984 195.695 819.588 168.633 855.049 81.7231C871.121 42.3342 866.703 -0.000121245 866.703 -0.000121245C866.703 -0.000121245 846.16 43.8313 826.056 66.8304Z" fill="#041DD3"/>
<path d="M65.9426 66.8309C119.856 128.509 261.064 143.842 261.064 143.842L253.015 195.695C253.015 195.695 72.4112 168.633 36.9495 81.7235C20.8778 42.3347 25.2956 0.000367036 25.2956 0.000367036C25.2956 0.000367036 45.8387 43.8318 65.9426 66.8309Z" fill="#041DD3"/>
<path d="M346.278 95.9094C341.285 110.314 301.498 207.289 301.498 207.289C330.983 160.364 345.604 146.621 369.712 135.124C364.989 141.082 365.868 149.039 369.712 166.218C370.854 142.191 386.687 132.78 420.525 117.489C436.493 147.959 437.751 162.858 439.973 189.161L440.014 189.654C446.245 176.069 449.164 168.556 449.728 157.173C449.737 156.94 449.747 156.706 449.759 156.472C449.75 156.707 449.739 156.941 449.728 157.173C449.273 168.868 452.365 180.725 461.592 207.289C456.187 157.125 464.153 146.59 482.938 135.124C491.051 137.085 495.395 142.364 502.428 166.218C504.481 149.323 505.502 140.153 502.428 135.124C521.856 131.891 537.209 153.663 551.384 189.654C545.251 161.715 541.717 146.894 533.751 135.124C559.836 147.604 571.587 165.947 590.364 207.289C590.364 207.289 556.519 114.43 551.384 95.9094C546.25 77.3889 446.837 78.4179 445.909 95.9093C446.837 78.4179 351.271 81.5046 346.278 95.9094Z" fill="#041DD3"/>
<path fill-rule="evenodd" clip-rule="evenodd" d="M102.598 374.655L101.185 293.231L96.1358 291.455L97.5513 356.077C74.5361 338.306 46.5747 353.552 46.5747 374.655C46.5747 402.12 102.598 398.99 102.598 374.655ZM137.525 291.455C137.396 290.666 137.136 289.833 136.76 288.959C126.473 281.515 122.441 280.368 118.866 284.55C120.765 286.479 122.157 288.334 122.888 289.637C123.069 289.96 123.332 290.376 123.652 290.882C127.444 296.877 139.221 315.499 116.63 340.426C143.269 325.227 139.856 305.17 137.815 293.179C137.714 292.584 137.616 292.009 137.525 291.455Z" fill="#FFFB00"/>
<path fill-rule="evenodd" clip-rule="evenodd" d="M789.493 374.655L790.907 293.231L795.956 291.455L794.54 356.077C817.555 338.306 845.517 353.552 845.517 374.655C845.517 402.12 789.493 398.99 789.493 374.655ZM754.567 291.455C754.696 290.666 754.956 289.833 755.332 288.959C765.619 281.515 769.651 280.368 773.225 284.55C771.327 286.479 769.935 288.334 769.203 289.637C769.023 289.96 768.759 290.376 768.439 290.882C764.648 296.877 752.871 315.499 775.462 340.426C748.822 325.227 752.236 305.17 754.277 293.179C754.378 292.584 754.476 292.009 754.567 291.455Z" fill="#FFFB00"/>
</svg>
